<svg width="560" height="380"><g transform="translate(80,30)"><rect x="345" y="248.3127604597066" width="14" height="1.6872395402934046" style="fill: rgb(86, 104, 244); stroke: grey;"></rect><rect x="120" y="234.4188387830347" width="14" height="15.581161216965313" style="fill: rgb(86, 104, 244); stroke: grey;"></rect><rect x="240" y="246.6485135827815" width="14" height="3.3514864172184957" style="fill: rgb(86, 104, 244); stroke: grey;"></rect><rect x="45" y="192.68616053669035" width="14" height="57.31383946330965" style="fill: rgb(86, 104, 244); stroke: grey;"></rect><rect x="315" y="247.7317790253581" width="14" height="2.268220974641906" style="fill: rgb(86, 104, 244); stroke: grey;"></rect><rect x="0" y="0" width="14" height="250" style="fill: rgb(204, 0, 0); stroke: grey;"></rect><rect x="420" y="249.32788124117516" width="14" height="0.672118758824837" style="fill: rgb(86, 104, 244); stroke: grey;"></rect><rect x="195" y="244.72904575443607" width="14" height="5.270954245563928" style="fill: rgb(86, 104, 244); stroke: grey;"></rect><rect x="180" y="240.6786536210341" width="14" height="9.321346378965899" style="fill: rgb(86, 104, 244); stroke: grey;"></rect><rect x="255" y="247.11401029661675" width="14" height="2.8859897033832453" style="fill: rgb(86, 104, 244); stroke: grey;"></rect><rect x="300" y="247.7073441973264" width="14" height="2.2926558026736075" style="fill: rgb(86, 104, 244); stroke: grey;"></rect><rect x="210" y="245.9106794252163" width="14" height="4.089320574783699" style="fill: rgb(86, 104, 244); stroke: grey;"></rect><rect x="105" y="231.15499922614748" width="14" height="18.84500077385252" style="fill: rgb(86, 104, 244); stroke: grey;"></rect><rect x="390" y="248.74984151505816" width="14" height="1.250158484941835" style="fill: rgb(86, 104, 244); stroke: grey;"></rect><rect x="360" y="248.34206188876655" width="14" height="1.6579381112334488" style="fill: rgb(86, 104, 244); stroke: grey;"></rect><rect x="150" y="240.04711508939252" width="14" height="9.95288491060748" style="fill: rgb(86, 104, 244); stroke: grey;"></rect><rect x="90" y="230.33734010371197" width="14" height="19.662659896288034" style="fill: rgb(86, 104, 244); stroke: grey;"></rect><rect x="60" y="224.08744717261104" width="14" height="25.912552827388964" style="fill: rgb(86, 104, 244); stroke: grey;"></rect><rect x="225" y="246.17074532273764" width="14" height="3.8292546772623552" style="fill: rgb(86, 104, 244); stroke: grey;"></rect><rect x="15" y="123.813179494832" width="14" height="126.186820505168" style="fill: rgb(204, 0, 0); stroke: grey;"></rect><rect x="330" y="248.21807223398125" width="14" height="1.7819277660187538" style="fill: rgb(86, 104, 244); stroke: grey;"></rect><rect x="405" y="249.03519358309663" width="14" height="0.9648064169033717" style="fill: rgb(86, 104, 244); stroke: grey;"></rect><rect x="285" y="247.21516340815032" width="14" height="2.7848365918496825" style="fill: rgb(86, 104, 244); stroke: grey;"></rect><rect x="375" y="248.70277503783885" width="14" height="1.2972249621611525" style="fill: rgb(86, 104, 244); stroke: grey;"></rect><rect x="75" y="228.87617256932504" width="14" height="21.123827430674964" style="fill: rgb(86, 104, 244); stroke: grey;"></rect><rect x="435" y="249.5285397910092" width="14" height="0.47146020899080554" style="fill: rgb(86, 104, 244); stroke: grey;"></rect><rect x="30" y="186.39840839097994" width="14" height="63.60159160902006" style="fill: rgb(86, 104, 244); stroke: grey;"></rect><rect x="135" y="236.37864456074928" width="14" height="13.62135543925072" style="fill: rgb(86, 104, 244); stroke: grey;"></rect><rect x="165" y="240.64344840959035" width="14" height="9.356551590409651" style="fill: rgb(86, 104, 244); stroke: grey;"></rect><rect x="270" y="247.1405358830108" width="14" height="2.8594641169891872" style="fill: rgb(86, 104, 244); stroke: grey;"></rect><g><text style="text-anchor: end; font-size: 11px; font-family: sans-serif;" transform="translate(355,258)rotate(-70)">Adipose_Tissue</text><text style="text-anchor: end; font-size: 11px; font-family: sans-serif;" transform="translate(130,258)rotate(-70)">Adrenal_Gland</text><text style="text-anchor: end; font-size: 11px; font-family: sans-serif;" transform="translate(250,258)rotate(-70)">Bladder</text><text style="text-anchor: end; font-size: 11px; font-family: sans-serif;" transform="translate(55,258)rotate(-70)">Blood</text><text style="text-anchor: end; font-size: 11px; font-family: sans-serif;" transform="translate(325,258)rotate(-70)">Blood_Vessel</text><text style="text-anchor: end; font-size: 11px; font-family: sans-serif;" transform="translate(10,258)rotate(-70)">Brain</text><text style="text-anchor: end; font-size: 11px; font-family: sans-serif;" transform="translate(430,258)rotate(-70)">Breast</text><text style="text-anchor: end; font-size: 11px; font-family: sans-serif;" transform="translate(205,258)rotate(-70)">Cervix_Uteri</text><text style="text-anchor: end; font-size: 11px; font-family: sans-serif;" transform="translate(190,258)rotate(-70)">Colon</text><text style="text-anchor: end; font-size: 11px; font-family: sans-serif;" transform="translate(265,258)rotate(-70)">Esophagus</text><text style="text-anchor: end; font-size: 11px; font-family: sans-serif;" transform="translate(310,258)rotate(-70)">Fallopian_Tube</text><text style="text-anchor: end; font-size: 11px; font-family: sans-serif;" transform="translate(220,258)rotate(-70)">Heart</text><text style="text-anchor: end; font-size: 11px; font-family: sans-serif;" transform="translate(115,258)rotate(-70)">Kidney</text><text style="text-anchor: end; font-size: 11px; font-family: sans-serif;" transform="translate(400,258)rotate(-70)">Liver</text><text style="text-anchor: end; font-size: 11px; font-family: sans-serif;" transform="translate(370,258)rotate(-70)">Lung</text><text style="text-anchor: end; font-size: 11px; font-family: sans-serif;" transform="translate(160,258)rotate(-70)">Muscle</text><text style="text-anchor: end; font-size: 11px; font-family: sans-serif;" transform="translate(100,258)rotate(-70)">Nerve</text><text style="text-anchor: end; font-size: 11px; font-family: sans-serif;" transform="translate(70,258)rotate(-70)">Ovary</text><text style="text-anchor: end; font-size: 11px; font-family: sans-serif;" transform="translate(235,258)rotate(-70)">Pancreas</text><text style="text-anchor: end; font-size: 11px; font-family: sans-serif;" transform="translate(25,258)rotate(-70)">Pituitary</text><text style="text-anchor: end; font-size: 11px; font-family: sans-serif;" transform="translate(340,258)rotate(-70)">Prostate</text><text style="text-anchor: end; font-size: 11px; font-family: sans-serif;" transform="translate(415,258)rotate(-70)">Salivary_Gland</text><text style="text-anchor: end; font-size: 11px; font-family: sans-serif;" transform="translate(295,258)rotate(-70)">Skin</text><text style="text-anchor: end; font-size: 11px; font-family: sans-serif;" transform="translate(385,258)rotate(-70)">Small_Intestine</text><text style="text-anchor: end; font-size: 11px; font-family: sans-serif;" transform="translate(85,258)rotate(-70)">Spleen</text><text style="text-anchor: end; font-size: 11px; font-family: sans-serif;" transform="translate(445,258)rotate(-70)">Stomach</text><text style="text-anchor: end; font-size: 11px; font-family: sans-serif;" transform="translate(40,258)rotate(-70)">Testis</text><text style="text-anchor: end; font-size: 11px; font-family: sans-serif;" transform="translate(145,258)rotate(-70)">Thyroid</text><text style="text-anchor: end; font-size: 11px; font-family: sans-serif;" transform="translate(175,258)rotate(-70)">Uterus</text><text style="text-anchor: end; font-size: 11px; font-family: sans-serif;" transform="translate(280,258)rotate(-70)">Vagina</text></g><line x1="0" x2="450" y1="131.93079232007582" y2="131.93079232007582" style="stroke: black; stroke-dasharray: 3, 3;"></line><g class="y axis"><g class="tick" style="opacity: 1;" transform="translate(0,250)"><line x2="-6" y2="0" style="fill: none; stroke: grey;"></line><text dy=".32em" style="text-anchor: end; font-size: 11px; font-family: sans-serif;" x="-9" y="0">0.0</text></g><g class="tick" style="opacity: 1;" transform="translate(0,228.7503996293183)"><line x2="-6" y2="0" style="fill: none; stroke: grey;"></line><text dy=".32em" style="text-anchor: end; font-size: 11px; font-family: sans-serif;" x="-9" y="0">0.5</text></g><g class="tick" style="opacity: 1;" transform="translate(0,207.5007992586366)"><line x2="-6" y2="0" style="fill: none; stroke: grey;"></line><text dy=".32em" style="text-anchor: end; font-size: 11px; font-family: sans-serif;" x="-9" y="0">1.0</text></g><g class="tick" style="opacity: 1;" transform="translate(0,186.25119888795487)"><line x2="-6" y2="0" style="fill: none; stroke: grey;"></line><text dy=".32em" style="text-anchor: end; font-size: 11px; font-family: sans-serif;" x="-9" y="0">1.5</text></g><g class="tick" style="opacity: 1;" transform="translate(0,165.0015985172732)"><line x2="-6" y2="0" style="fill: none; stroke: grey;"></line><text dy=".32em" style="text-anchor: end; font-size: 11px; font-family: sans-serif;" x="-9" y="0">2.0</text></g><g class="tick" style="opacity: 1;" transform="translate(0,143.75199814659152)"><line x2="-6" y2="0" style="fill: none; stroke: grey;"></line><text dy=".32em" style="text-anchor: end; font-size: 11px; font-family: sans-serif;" x="-9" y="0">2.5</text></g><g class="tick" style="opacity: 1;" transform="translate(0,122.5023977759098)"><line x2="-6" y2="0" style="fill: none; stroke: grey;"></line><text dy=".32em" style="text-anchor: end; font-size: 11px; font-family: sans-serif;" x="-9" y="0">3.0</text></g><g class="tick" style="opacity: 1;" transform="translate(0,101.25279740522811)"><line x2="-6" y2="0" style="fill: none; stroke: grey;"></line><text dy=".32em" style="text-anchor: end; font-size: 11px; font-family: sans-serif;" x="-9" y="0">3.5</text></g><g class="tick" style="opacity: 1;" transform="translate(0,80.00319703454639)"><line x2="-6" y2="0" style="fill: none; stroke: grey;"></line><text dy=".32em" style="text-anchor: end; font-size: 11px; font-family: sans-serif;" x="-9" y="0">4.0</text></g><g class="tick" style="opacity: 1;" transform="translate(0,58.753596663864705)"><line x2="-6" y2="0" style="fill: none; stroke: grey;"></line><text dy=".32em" style="text-anchor: end; font-size: 11px; font-family: sans-serif;" x="-9" y="0">4.5</text></g><g class="tick" style="opacity: 1;" transform="translate(0,37.503996293182986)"><line x2="-6" y2="0" style="fill: none; stroke: grey;"></line><text dy=".32em" style="text-anchor: end; font-size: 11px; font-family: sans-serif;" x="-9" y="0">5.0</text></g><g class="tick" style="opacity: 1;" transform="translate(0,16.254395922501303)"><line x2="-6" y2="0" style="fill: none; stroke: grey;"></line><text dy=".32em" style="text-anchor: end; font-size: 11px; font-family: sans-serif;" x="-9" y="0">5.5</text></g><path class="domain" d="M-6,0H0V250H-6" style="fill: none; stroke: grey;"></path></g><g class="x axis" transform="translate(0,250)"><g class="tick" style="opacity: 1;" transform="translate(7.5,0)"><line y2="6" x2="0" style="fill: none; stroke: grey;"></line></g><g class="tick" style="opacity: 1;" transform="translate(22.5,0)"><line y2="6" x2="0" style="fill: none; stroke: grey;"></line></g><g class="tick" style="opacity: 1;" transform="translate(37.5,0)"><line y2="6" x2="0" style="fill: none; stroke: grey;"></line></g><g class="tick" style="opacity: 1;" transform="translate(52.5,0)"><line y2="6" x2="0" style="fill: none; stroke: grey;"></line></g><g class="tick" style="opacity: 1;" transform="translate(67.5,0)"><line y2="6" x2="0" style="fill: none; stroke: grey;"></line></g><g class="tick" style="opacity: 1;" transform="translate(82.5,0)"><line y2="6" x2="0" style="fill: none; stroke: grey;"></line></g><g class="tick" style="opacity: 1;" transform="translate(97.5,0)"><line y2="6" x2="0" style="fill: none; stroke: grey;"></line></g><g class="tick" style="opacity: 1;" transform="translate(112.5,0)"><line y2="6" x2="0" style="fill: none; stroke: grey;"></line></g><g class="tick" style="opacity: 1;" transform="translate(127.5,0)"><line y2="6" x2="0" style="fill: none; stroke: grey;"></line></g><g class="tick" style="opacity: 1;" transform="translate(142.5,0)"><line y2="6" x2="0" style="fill: none; stroke: grey;"></line></g><g class="tick" style="opacity: 1;" transform="translate(157.5,0)"><line y2="6" x2="0" style="fill: none; stroke: grey;"></line></g><g class="tick" style="opacity: 1;" transform="translate(172.5,0)"><line y2="6" x2="0" style="fill: none; stroke: grey;"></line></g><g class="tick" style="opacity: 1;" transform="translate(187.5,0)"><line y2="6" x2="0" style="fill: none; stroke: grey;"></line></g><g class="tick" style="opacity: 1;" transform="translate(202.5,0)"><line y2="6" x2="0" style="fill: none; stroke: grey;"></line></g><g class="tick" style="opacity: 1;" transform="translate(217.5,0)"><line y2="6" x2="0" style="fill: none; stroke: grey;"></line></g><g class="tick" style="opacity: 1;" transform="translate(232.5,0)"><line y2="6" x2="0" style="fill: none; stroke: grey;"></line></g><g class="tick" style="opacity: 1;" transform="translate(247.5,0)"><line y2="6" x2="0" style="fill: none; stroke: grey;"></line></g><g class="tick" style="opacity: 1;" transform="translate(262.5,0)"><line y2="6" x2="0" style="fill: none; stroke: grey;"></line></g><g class="tick" style="opacity: 1;" transform="translate(277.5,0)"><line y2="6" x2="0" style="fill: none; stroke: grey;"></line></g><g class="tick" style="opacity: 1;" transform="translate(292.5,0)"><line y2="6" x2="0" style="fill: none; stroke: grey;"></line></g><g class="tick" style="opacity: 1;" transform="translate(307.5,0)"><line y2="6" x2="0" style="fill: none; stroke: grey;"></line></g><g class="tick" style="opacity: 1;" transform="translate(322.5,0)"><line y2="6" x2="0" style="fill: none; stroke: grey;"></line></g><g class="tick" style="opacity: 1;" transform="translate(337.5,0)"><line y2="6" x2="0" style="fill: none; stroke: grey;"></line></g><g class="tick" style="opacity: 1;" transform="translate(352.5,0)"><line y2="6" x2="0" style="fill: none; stroke: grey;"></line></g><g class="tick" style="opacity: 1;" transform="translate(367.5,0)"><line y2="6" x2="0" style="fill: none; stroke: grey;"></line></g><g class="tick" style="opacity: 1;" transform="translate(382.5,0)"><line y2="6" x2="0" style="fill: none; stroke: grey;"></line></g><g class="tick" style="opacity: 1;" transform="translate(397.5,0)"><line y2="6" x2="0" style="fill: none; stroke: grey;"></line></g><g class="tick" style="opacity: 1;" transform="translate(412.5,0)"><line y2="6" x2="0" style="fill: none; stroke: grey;"></line></g><g class="tick" style="opacity: 1;" transform="translate(427.5,0)"><line y2="6" x2="0" style="fill: none; stroke: grey;"></line></g><g class="tick" style="opacity: 1;" transform="translate(442.5,0)"><line y2="6" x2="0" style="fill: none; stroke: grey;"></line></g><path class="domain" d="M0,6V0H450V6" style="fill: none; stroke: grey;"></path></g><text text-anchor="middle" transform="translate(-55,125)rotate(-90)" style="font-family: sans-serif;">-log 10 P-value</text></g></svg>