<svg width="905" height="483.5"><g transform="translate(80,30)"><rect x="720" y="249.9235246509883" width="14" height="0.07647534901170161" style="fill: rgb(86, 104, 244); stroke: grey;"></rect><rect x="675" y="249.86505677081902" width="14" height="0.13494322918097623" style="fill: rgb(86, 104, 244); stroke: grey;"></rect><rect x="345" y="247.28633430441258" width="14" height="2.713665695587423" style="fill: rgb(86, 104, 244); stroke: grey;"></rect><rect x="585" y="249.7825848151821" width="14" height="0.21741518481789512" style="fill: rgb(86, 104, 244); stroke: grey;"></rect><rect x="780" y="249.99256142322088" width="14" height="0.007438576779122741" style="fill: rgb(86, 104, 244); stroke: grey;"></rect><rect x="660" y="249.84435776119267" width="14" height="0.15564223880733152" style="fill: rgb(86, 104, 244); stroke: grey;"></rect><rect x="630" y="249.83444172383665" width="14" height="0.1655582761633525" style="fill: rgb(86, 104, 244); stroke: grey;"></rect><rect x="150" y="69.82537451412382" width="14" height="180.17462548587616" style="fill: rgb(204, 0, 0); stroke: grey;"></rect><rect x="45" y="20.255096946723228" width="14" height="229.74490305327677" style="fill: rgb(204, 0, 0); stroke: grey;"></rect><rect x="60" y="22.43844831006375" width="14" height="227.56155168993624" style="fill: rgb(204, 0, 0); stroke: grey;"></rect><rect x="30" y="8.117134786489261" width="14" height="241.88286521351074" style="fill: rgb(204, 0, 0); stroke: grey;"></rect><rect x="90" y="31.88997559844306" width="14" height="218.11002440155693" style="fill: rgb(204, 0, 0); stroke: grey;"></rect><rect x="75" y="30.159903586233217" width="14" height="219.8400964137668" style="fill: rgb(204, 0, 0); stroke: grey;"></rect><rect x="0" y="0" width="14" height="250" style="fill: rgb(204, 0, 0); stroke: grey;"></rect><rect x="135" y="50.91590776759522" width="14" height="199.08409223240477" style="fill: rgb(204, 0, 0); stroke: grey;"></rect><rect x="120" y="46.76574996404256" width="14" height="203.23425003595744" style="fill: rgb(204, 0, 0); stroke: grey;"></rect><rect x="15" y="4.712772039246971" width="14" height="245.28722796075303" style="fill: rgb(204, 0, 0); stroke: grey;"></rect><rect x="105" y="40.485505571419885" width="14" height="209.51449442858012" style="fill: rgb(204, 0, 0); stroke: grey;"></rect><rect x="195" y="185.57723201169534" width="14" height="64.42276798830466" style="fill: rgb(86, 104, 244); stroke: grey;"></rect><rect x="165" y="132.0286617161625" width="14" height="117.9713382838375" style="fill: rgb(86, 104, 244); stroke: grey;"></rect><rect x="750" y="249.9813988130016" width="14" height="0.018601186998409958" style="fill: rgb(86, 104, 244); stroke: grey;"></rect><rect x="240" y="221.17927384351367" width="14" height="28.82072615648633" style="fill: rgb(86, 104, 244); stroke: grey;"></rect><rect x="375" y="247.91632366409735" width="14" height="2.083676335902652" style="fill: rgb(86, 104, 244); stroke: grey;"></rect><rect x="645" y="249.84391714385964" width="14" height="0.15608285614035822" style="fill: rgb(86, 104, 244); stroke: grey;"></rect><rect x="480" y="249.5600857250537" width="14" height="0.43991427494628965" style="fill: rgb(86, 104, 244); stroke: grey;"></rect><rect x="300" y="245.63764401854127" width="14" height="4.362355981458734" style="fill: rgb(86, 104, 244); stroke: grey;"></rect><rect x="555" y="249.70756121708882" width="14" height="0.29243878291117653" style="fill: rgb(86, 104, 244); stroke: grey;"></rect><rect x="525" y="249.61870559284483" width="14" height="0.38129440715516694" style="fill: rgb(86, 104, 244); stroke: grey;"></rect><rect x="465" y="249.49616059848415" width="14" height="0.5038394015158474" style="fill: rgb(86, 104, 244); stroke: grey;"></rect><rect x="405" y="249.17801810373174" width="14" height="0.8219818962682552" style="fill: rgb(86, 104, 244); stroke: grey;"></rect><rect x="705" y="249.91540125182905" width="14" height="0.08459874817094715" style="fill: rgb(86, 104, 244); stroke: grey;"></rect><rect x="450" y="249.43945530355813" width="14" height="0.5605446964418661" style="fill: rgb(86, 104, 244); stroke: grey;"></rect><rect x="540" y="249.6298323047332" width="14" height="0.3701676952667867" style="fill: rgb(86, 104, 244); stroke: grey;"></rect><rect x="285" y="244.94922192869683" width="14" height="5.050778071303171" style="fill: rgb(86, 104, 244); stroke: grey;"></rect><rect x="510" y="249.6062369525913" width="14" height="0.3937630474086973" style="fill: rgb(86, 104, 244); stroke: grey;"></rect><rect x="600" y="249.79848595594584" width="14" height="0.2015140440541643" style="fill: rgb(86, 104, 244); stroke: grey;"></rect><rect x="690" y="249.9055173746491" width="14" height="0.09448262535090635" style="fill: rgb(86, 104, 244); stroke: grey;"></rect><rect x="315" y="246.73565139434" width="14" height="3.2643486056599897" style="fill: rgb(86, 104, 244); stroke: grey;"></rect><rect x="330" y="247.20644976144376" width="14" height="2.793550238556236" style="fill: rgb(86, 104, 244); stroke: grey;"></rect><rect x="270" y="243.94555327899144" width="14" height="6.05444672100856" style="fill: rgb(86, 104, 244); stroke: grey;"></rect><rect x="390" y="249.151201431752" width="14" height="0.8487985682479859" style="fill: rgb(86, 104, 244); stroke: grey;"></rect><rect x="180" y="165.5812393001531" width="14" height="84.4187606998469" style="fill: rgb(86, 104, 244); stroke: grey;"></rect><rect x="735" y="249.9283533504617" width="14" height="0.0716466495383088" style="fill: rgb(86, 104, 244); stroke: grey;"></rect><rect x="420" y="249.22951383748827" width="14" height="0.7704861625117303" style="fill: rgb(86, 104, 244); stroke: grey;"></rect><rect x="495" y="249.5939840447267" width="14" height="0.4060159552732898" style="fill: rgb(86, 104, 244); stroke: grey;"></rect><rect x="570" y="249.7595960749038" width="14" height="0.2404039250961887" style="fill: rgb(86, 104, 244); stroke: grey;"></rect><rect x="255" y="241.38003855898162" width="14" height="8.619961441018376" style="fill: rgb(86, 104, 244); stroke: grey;"></rect><rect x="765" y="249.9844636262107" width="14" height="0.015536373789302615" style="fill: rgb(86, 104, 244); stroke: grey;"></rect><rect x="210" y="196.7045469646542" width="14" height="53.29545303534579" style="fill: rgb(86, 104, 244); stroke: grey;"></rect><rect x="360" y="247.67754712493576" width="14" height="2.3224528750642435" style="fill: rgb(86, 104, 244); stroke: grey;"></rect><rect x="435" y="249.28699126348405" width="14" height="0.7130087365159454" style="fill: rgb(86, 104, 244); stroke: grey;"></rect><rect x="615" y="249.82694662439783" width="14" height="0.17305337560216572" style="fill: rgb(86, 104, 244); stroke: grey;"></rect><rect x="225" y="210.14718834848668" width="14" height="39.85281165151332" style="fill: rgb(86, 104, 244); stroke: grey;"></rect><g><text style="text-anchor: end; font-size: 11px; font-family: sans-serif;" transform="translate(730,258)rotate(-70)">Adipose_Subcutaneous</text><text style="text-anchor: end; font-size: 11px; font-family: sans-serif;" transform="translate(685,258)rotate(-70)">Adipose_Visceral_Omentum</text><text style="text-anchor: end; font-size: 11px; font-family: sans-serif;" transform="translate(355,258)rotate(-70)">Adrenal_Gland</text><text style="text-anchor: end; font-size: 11px; font-family: sans-serif;" transform="translate(595,258)rotate(-70)">Artery_Aorta</text><text style="text-anchor: end; font-size: 11px; font-family: sans-serif;" transform="translate(790,258)rotate(-70)">Artery_Coronary</text><text style="text-anchor: end; font-size: 11px; font-family: sans-serif;" transform="translate(670,258)rotate(-70)">Artery_Tibial</text><text style="text-anchor: end; font-size: 11px; font-family: sans-serif;" transform="translate(640,258)rotate(-70)">Bladder</text><text style="text-anchor: end; font-size: 11px; font-family: sans-serif;" transform="translate(160,258)rotate(-70)">Brain_Amygdala</text><text style="text-anchor: end; font-size: 11px; font-family: sans-serif;" transform="translate(55,258)rotate(-70)">Brain_Anterior_cingulate_cortex_BA24</text><text style="text-anchor: end; font-size: 11px; font-family: sans-serif;" transform="translate(70,258)rotate(-70)">Brain_Caudate_basal_ganglia</text><text style="text-anchor: end; font-size: 11px; font-family: sans-serif;" transform="translate(40,258)rotate(-70)">Brain_Cerebellar_Hemisphere</text><text style="text-anchor: end; font-size: 11px; font-family: sans-serif;" transform="translate(100,258)rotate(-70)">Brain_Cerebellum</text><text style="text-anchor: end; font-size: 11px; font-family: sans-serif;" transform="translate(85,258)rotate(-70)">Brain_Cortex</text><text style="text-anchor: end; font-size: 11px; font-family: sans-serif;" transform="translate(10,258)rotate(-70)">Brain_Frontal_Cortex_BA9</text><text style="text-anchor: end; font-size: 11px; font-family: sans-serif;" transform="translate(145,258)rotate(-70)">Brain_Hippocampus</text><text style="text-anchor: end; font-size: 11px; font-family: sans-serif;" transform="translate(130,258)rotate(-70)">Brain_Hypothalamus</text><text style="text-anchor: end; font-size: 11px; font-family: sans-serif;" transform="translate(25,258)rotate(-70)">Brain_Nucleus_accumbens_basal_ganglia</text><text style="text-anchor: end; font-size: 11px; font-family: sans-serif;" transform="translate(115,258)rotate(-70)">Brain_Putamen_basal_ganglia</text><text style="text-anchor: end; font-size: 11px; font-family: sans-serif;" transform="translate(205,258)rotate(-70)">Brain_Spinal_cord_cervical_c-1</text><text style="text-anchor: end; font-size: 11px; font-family: sans-serif;" transform="translate(175,258)rotate(-70)">Brain_Substantia_nigra</text><text style="text-anchor: end; font-size: 11px; font-family: sans-serif;" transform="translate(760,258)rotate(-70)">Breast_Mammary_Tissue</text><text style="text-anchor: end; font-size: 11px; font-family: sans-serif;" transform="translate(250,258)rotate(-70)">Cells_EBV-transformed_lymphocytes</text><text style="text-anchor: end; font-size: 11px; font-family: sans-serif;" transform="translate(385,258)rotate(-70)">Cells_Transformed_fibroblasts</text><text style="text-anchor: end; font-size: 11px; font-family: sans-serif;" transform="translate(655,258)rotate(-70)">Cervix_Ectocervix</text><text style="text-anchor: end; font-size: 11px; font-family: sans-serif;" transform="translate(490,258)rotate(-70)">Cervix_Endocervix</text><text style="text-anchor: end; font-size: 11px; font-family: sans-serif;" transform="translate(310,258)rotate(-70)">Colon_Sigmoid</text><text style="text-anchor: end; font-size: 11px; font-family: sans-serif;" transform="translate(565,258)rotate(-70)">Colon_Transverse</text><text style="text-anchor: end; font-size: 11px; font-family: sans-serif;" transform="translate(535,258)rotate(-70)">Esophagus_Gastroesophageal_Junction</text><text style="text-anchor: end; font-size: 11px; font-family: sans-serif;" transform="translate(475,258)rotate(-70)">Esophagus_Mucosa</text><text style="text-anchor: end; font-size: 11px; font-family: sans-serif;" transform="translate(415,258)rotate(-70)">Esophagus_Muscularis</text><text style="text-anchor: end; font-size: 11px; font-family: sans-serif;" transform="translate(715,258)rotate(-70)">Fallopian_Tube</text><text style="text-anchor: end; font-size: 11px; font-family: sans-serif;" transform="translate(460,258)rotate(-70)">Heart_Atrial_Appendage</text><text style="text-anchor: end; font-size: 11px; font-family: sans-serif;" transform="translate(550,258)rotate(-70)">Heart_Left_Ventricle</text><text style="text-anchor: end; font-size: 11px; font-family: sans-serif;" transform="translate(295,258)rotate(-70)">Kidney_Cortex</text><text style="text-anchor: end; font-size: 11px; font-family: sans-serif;" transform="translate(520,258)rotate(-70)">Liver</text><text style="text-anchor: end; font-size: 11px; font-family: sans-serif;" transform="translate(610,258)rotate(-70)">Lung</text><text style="text-anchor: end; font-size: 11px; font-family: sans-serif;" transform="translate(700,258)rotate(-70)">Minor_Salivary_Gland</text><text style="text-anchor: end; font-size: 11px; font-family: sans-serif;" transform="translate(325,258)rotate(-70)">Muscle_Skeletal</text><text style="text-anchor: end; font-size: 11px; font-family: sans-serif;" transform="translate(340,258)rotate(-70)">Nerve_Tibial</text><text style="text-anchor: end; font-size: 11px; font-family: sans-serif;" transform="translate(280,258)rotate(-70)">Ovary</text><text style="text-anchor: end; font-size: 11px; font-family: sans-serif;" transform="translate(400,258)rotate(-70)">Pancreas</text><text style="text-anchor: end; font-size: 11px; font-family: sans-serif;" transform="translate(190,258)rotate(-70)">Pituitary</text><text style="text-anchor: end; font-size: 11px; font-family: sans-serif;" transform="translate(745,258)rotate(-70)">Prostate</text><text style="text-anchor: end; font-size: 11px; font-family: sans-serif;" transform="translate(430,258)rotate(-70)">Skin_Not_Sun_Exposed_Suprapubic</text><text style="text-anchor: end; font-size: 11px; font-family: sans-serif;" transform="translate(505,258)rotate(-70)">Skin_Sun_Exposed_Lower_leg</text><text style="text-anchor: end; font-size: 11px; font-family: sans-serif;" transform="translate(580,258)rotate(-70)">Small_Intestine_Terminal_Ileum</text><text style="text-anchor: end; font-size: 11px; font-family: sans-serif;" transform="translate(265,258)rotate(-70)">Spleen</text><text style="text-anchor: end; font-size: 11px; font-family: sans-serif;" transform="translate(775,258)rotate(-70)">Stomach</text><text style="text-anchor: end; font-size: 11px; font-family: sans-serif;" transform="translate(220,258)rotate(-70)">Testis</text><text style="text-anchor: end; font-size: 11px; font-family: sans-serif;" transform="translate(370,258)rotate(-70)">Thyroid</text><text style="text-anchor: end; font-size: 11px; font-family: sans-serif;" transform="translate(445,258)rotate(-70)">Uterus</text><text style="text-anchor: end; font-size: 11px; font-family: sans-serif;" transform="translate(625,258)rotate(-70)">Vagina</text><text style="text-anchor: end; font-size: 11px; font-family: sans-serif;" transform="translate(235,258)rotate(-70)">Whole_Blood</text></g><line x1="0" x2="795" y1="97.62206964780556" y2="97.62206964780556" style="stroke: black; stroke-dasharray: 3, 3;"></line><g class="y axis"><g class="tick" style="opacity: 1;" transform="translate(0,250)"><line x2="-6" y2="0" style="fill: none; stroke: grey;"></line><text dy=".32em" style="text-anchor: end; font-size: 11px; font-family: sans-serif;" x="-9" y="0">0.0</text></g><g class="tick" style="opacity: 1;" transform="translate(0,224.81611163655703)"><line x2="-6" y2="0" style="fill: none; stroke: grey;"></line><text dy=".32em" style="text-anchor: end; font-size: 11px; font-family: sans-serif;" x="-9" y="0">0.5</text></g><g class="tick" style="opacity: 1;" transform="translate(0,199.63222327311405)"><line x2="-6" y2="0" style="fill: none; stroke: grey;"></line><text dy=".32em" style="text-anchor: end; font-size: 11px; font-family: sans-serif;" x="-9" y="0">1.0</text></g><g class="tick" style="opacity: 1;" transform="translate(0,174.4483349096711)"><line x2="-6" y2="0" style="fill: none; stroke: grey;"></line><text dy=".32em" style="text-anchor: end; font-size: 11px; font-family: sans-serif;" x="-9" y="0">1.5</text></g><g class="tick" style="opacity: 1;" transform="translate(0,149.2644465462281)"><line x2="-6" y2="0" style="fill: none; stroke: grey;"></line><text dy=".32em" style="text-anchor: end; font-size: 11px; font-family: sans-serif;" x="-9" y="0">2.0</text></g><g class="tick" style="opacity: 1;" transform="translate(0,124.08055818278513)"><line x2="-6" y2="0" style="fill: none; stroke: grey;"></line><text dy=".32em" style="text-anchor: end; font-size: 11px; font-family: sans-serif;" x="-9" y="0">2.5</text></g><g class="tick" style="opacity: 1;" transform="translate(0,98.89666981934216)"><line x2="-6" y2="0" style="fill: none; stroke: grey;"></line><text dy=".32em" style="text-anchor: end; font-size: 11px; font-family: sans-serif;" x="-9" y="0">3.0</text></g><g class="tick" style="opacity: 1;" transform="translate(0,73.71278145589919)"><line x2="-6" y2="0" style="fill: none; stroke: grey;"></line><text dy=".32em" style="text-anchor: end; font-size: 11px; font-family: sans-serif;" x="-9" y="0">3.5</text></g><g class="tick" style="opacity: 1;" transform="translate(0,48.52889309245623)"><line x2="-6" y2="0" style="fill: none; stroke: grey;"></line><text dy=".32em" style="text-anchor: end; font-size: 11px; font-family: sans-serif;" x="-9" y="0">4.0</text></g><g class="tick" style="opacity: 1;" transform="translate(0,23.34500472901324)"><line x2="-6" y2="0" style="fill: none; stroke: grey;"></line><text dy=".32em" style="text-anchor: end; font-size: 11px; font-family: sans-serif;" x="-9" y="0">4.5</text></g><path class="domain" d="M-6,0H0V250H-6" style="fill: none; stroke: grey;"></path></g><g class="x axis" transform="translate(0,250)"><g class="tick" style="opacity: 1;" transform="translate(7.5,0)"><line y2="6" x2="0" style="fill: none; stroke: grey;"></line></g><g class="tick" style="opacity: 1;" transform="translate(22.5,0)"><line y2="6" x2="0" style="fill: none; stroke: grey;"></line></g><g class="tick" style="opacity: 1;" transform="translate(37.5,0)"><line y2="6" x2="0" style="fill: none; stroke: grey;"></line></g><g class="tick" style="opacity: 1;" transform="translate(52.5,0)"><line y2="6" x2="0" style="fill: none; stroke: grey;"></line></g><g class="tick" style="opacity: 1;" transform="translate(67.5,0)"><line y2="6" x2="0" style="fill: none; stroke: grey;"></line></g><g class="tick" style="opacity: 1;" transform="translate(82.5,0)"><line y2="6" x2="0" style="fill: none; stroke: grey;"></line></g><g class="tick" style="opacity: 1;" transform="translate(97.5,0)"><line y2="6" x2="0" style="fill: none; stroke: grey;"></line></g><g class="tick" style="opacity: 1;" transform="translate(112.5,0)"><line y2="6" x2="0" style="fill: none; stroke: grey;"></line></g><g class="tick" style="opacity: 1;" transform="translate(127.5,0)"><line y2="6" x2="0" style="fill: none; stroke: grey;"></line></g><g class="tick" style="opacity: 1;" transform="translate(142.5,0)"><line y2="6" x2="0" style="fill: none; stroke: grey;"></line></g><g class="tick" style="opacity: 1;" transform="translate(157.5,0)"><line y2="6" x2="0" style="fill: none; stroke: grey;"></line></g><g class="tick" style="opacity: 1;" transform="translate(172.5,0)"><line y2="6" x2="0" style="fill: none; stroke: grey;"></line></g><g class="tick" style="opacity: 1;" transform="translate(187.5,0)"><line y2="6" x2="0" style="fill: none; stroke: grey;"></line></g><g class="tick" style="opacity: 1;" transform="translate(202.5,0)"><line y2="6" x2="0" style="fill: none; stroke: grey;"></line></g><g class="tick" style="opacity: 1;" transform="translate(217.5,0)"><line y2="6" x2="0" style="fill: none; stroke: grey;"></line></g><g class="tick" style="opacity: 1;" transform="translate(232.5,0)"><line y2="6" x2="0" style="fill: none; stroke: grey;"></line></g><g class="tick" style="opacity: 1;" transform="translate(247.5,0)"><line y2="6" x2="0" style="fill: none; stroke: grey;"></line></g><g class="tick" style="opacity: 1;" transform="translate(262.5,0)"><line y2="6" x2="0" style="fill: none; stroke: grey;"></line></g><g class="tick" style="opacity: 1;" transform="translate(277.5,0)"><line y2="6" x2="0" style="fill: none; stroke: grey;"></line></g><g class="tick" style="opacity: 1;" transform="translate(292.5,0)"><line y2="6" x2="0" style="fill: none; stroke: grey;"></line></g><g class="tick" style="opacity: 1;" transform="translate(307.5,0)"><line y2="6" x2="0" style="fill: none; stroke: grey;"></line></g><g class="tick" style="opacity: 1;" transform="translate(322.5,0)"><line y2="6" x2="0" style="fill: none; stroke: grey;"></line></g><g class="tick" style="opacity: 1;" transform="translate(337.5,0)"><line y2="6" x2="0" style="fill: none; stroke: grey;"></line></g><g class="tick" style="opacity: 1;" transform="translate(352.5,0)"><line y2="6" x2="0" style="fill: none; stroke: grey;"></line></g><g class="tick" style="opacity: 1;" transform="translate(367.5,0)"><line y2="6" x2="0" style="fill: none; stroke: grey;"></line></g><g class="tick" style="opacity: 1;" transform="translate(382.5,0)"><line y2="6" x2="0" style="fill: none; stroke: grey;"></line></g><g class="tick" style="opacity: 1;" transform="translate(397.5,0)"><line y2="6" x2="0" style="fill: none; stroke: grey;"></line></g><g class="tick" style="opacity: 1;" transform="translate(412.5,0)"><line y2="6" x2="0" style="fill: none; stroke: grey;"></line></g><g class="tick" style="opacity: 1;" transform="translate(427.5,0)"><line y2="6" x2="0" style="fill: none; stroke: grey;"></line></g><g class="tick" style="opacity: 1;" transform="translate(442.5,0)"><line y2="6" x2="0" style="fill: none; stroke: grey;"></line></g><g class="tick" style="opacity: 1;" transform="translate(457.5,0)"><line y2="6" x2="0" style="fill: none; stroke: grey;"></line></g><g class="tick" style="opacity: 1;" transform="translate(472.5,0)"><line y2="6" x2="0" style="fill: none; stroke: grey;"></line></g><g class="tick" style="opacity: 1;" transform="translate(487.5,0)"><line y2="6" x2="0" style="fill: none; stroke: grey;"></line></g><g class="tick" style="opacity: 1;" transform="translate(502.5,0)"><line y2="6" x2="0" style="fill: none; stroke: grey;"></line></g><g class="tick" style="opacity: 1;" transform="translate(517.5,0)"><line y2="6" x2="0" style="fill: none; stroke: grey;"></line></g><g class="tick" style="opacity: 1;" transform="translate(532.5,0)"><line y2="6" x2="0" style="fill: none; stroke: grey;"></line></g><g class="tick" style="opacity: 1;" transform="translate(547.5,0)"><line y2="6" x2="0" style="fill: none; stroke: grey;"></line></g><g class="tick" style="opacity: 1;" transform="translate(562.5,0)"><line y2="6" x2="0" style="fill: none; stroke: grey;"></line></g><g class="tick" style="opacity: 1;" transform="translate(577.5,0)"><line y2="6" x2="0" style="fill: none; stroke: grey;"></line></g><g class="tick" style="opacity: 1;" transform="translate(592.5,0)"><line y2="6" x2="0" style="fill: none; stroke: grey;"></line></g><g class="tick" style="opacity: 1;" transform="translate(607.5,0)"><line y2="6" x2="0" style="fill: none; stroke: grey;"></line></g><g class="tick" style="opacity: 1;" transform="translate(622.5,0)"><line y2="6" x2="0" style="fill: none; stroke: grey;"></line></g><g class="tick" style="opacity: 1;" transform="translate(637.5,0)"><line y2="6" x2="0" style="fill: none; stroke: grey;"></line></g><g class="tick" style="opacity: 1;" transform="translate(652.5,0)"><line y2="6" x2="0" style="fill: none; stroke: grey;"></line></g><g class="tick" style="opacity: 1;" transform="translate(667.5,0)"><line y2="6" x2="0" style="fill: none; stroke: grey;"></line></g><g class="tick" style="opacity: 1;" transform="translate(682.5,0)"><line y2="6" x2="0" style="fill: none; stroke: grey;"></line></g><g class="tick" style="opacity: 1;" transform="translate(697.5,0)"><line y2="6" x2="0" style="fill: none; stroke: grey;"></line></g><g class="tick" style="opacity: 1;" transform="translate(712.5,0)"><line y2="6" x2="0" style="fill: none; stroke: grey;"></line></g><g class="tick" style="opacity: 1;" transform="translate(727.5,0)"><line y2="6" x2="0" style="fill: none; stroke: grey;"></line></g><g class="tick" style="opacity: 1;" transform="translate(742.5,0)"><line y2="6" x2="0" style="fill: none; stroke: grey;"></line></g><g class="tick" style="opacity: 1;" transform="translate(757.5,0)"><line y2="6" x2="0" style="fill: none; stroke: grey;"></line></g><g class="tick" style="opacity: 1;" transform="translate(772.5,0)"><line y2="6" x2="0" style="fill: none; stroke: grey;"></line></g><g class="tick" style="opacity: 1;" transform="translate(787.5,0)"><line y2="6" x2="0" style="fill: none; stroke: grey;"></line></g><path class="domain" d="M0,6V0H795V6" style="fill: none; stroke: grey;"></path></g><text text-anchor="middle" transform="translate(-55,125)rotate(-90)" style="font-family: sans-serif;">-log 10 P-value</text></g></svg>